<mxfile host="app.diagrams.net" modified="2023-07-21T12:06:45.704Z" agent="Mozilla/5.0 (Windows NT 10.0; Win64; x64) AppleWebKit/537.36 (KHTML, like Gecko) Chrome/114.0.0.0 Safari/537.36" etag="G_nQF1eVq_sgwHibbb1X" version="21.6.5" type="github">
  <diagram id="C5RBs43oDa-KdzZeNtuy" name="Page-1">
    <mxGraphModel dx="1600" dy="736" grid="1" gridSize="10" guides="1" tooltips="1" connect="1" arrows="1" fold="1" page="1" pageScale="1" pageWidth="827" pageHeight="1169" math="0" shadow="0">
      <root>
        <mxCell id="WIyWlLk6GJQsqaUBKTNV-0" />
        <mxCell id="WIyWlLk6GJQsqaUBKTNV-1" parent="WIyWlLk6GJQsqaUBKTNV-0" />
        <mxCell id="djVUYxhhLj313IWxccLk-9" value="" style="edgeStyle=orthogonalEdgeStyle;rounded=0;orthogonalLoop=1;jettySize=auto;html=1;exitX=0.5;exitY=1;exitDx=0;exitDy=0;" edge="1" parent="WIyWlLk6GJQsqaUBKTNV-1" source="WIyWlLk6GJQsqaUBKTNV-3" target="WIyWlLk6GJQsqaUBKTNV-7">
          <mxGeometry relative="1" as="geometry" />
        </mxCell>
        <mxCell id="djVUYxhhLj313IWxccLk-207" style="edgeStyle=orthogonalEdgeStyle;rounded=0;orthogonalLoop=1;jettySize=auto;html=1;exitX=0.5;exitY=1;exitDx=0;exitDy=0;entryX=0.5;entryY=0;entryDx=0;entryDy=0;" edge="1" parent="WIyWlLk6GJQsqaUBKTNV-1" source="WIyWlLk6GJQsqaUBKTNV-3" target="djVUYxhhLj313IWxccLk-113">
          <mxGeometry relative="1" as="geometry" />
        </mxCell>
        <mxCell id="WIyWlLk6GJQsqaUBKTNV-3" value="Ally Role Ability" style="rounded=1;whiteSpace=wrap;html=1;fontSize=12;glass=0;strokeWidth=1;shadow=0;" parent="WIyWlLk6GJQsqaUBKTNV-1" vertex="1">
          <mxGeometry x="460" y="40" width="120" height="40" as="geometry" />
        </mxCell>
        <mxCell id="djVUYxhhLj313IWxccLk-24" value="" style="edgeStyle=orthogonalEdgeStyle;rounded=0;orthogonalLoop=1;jettySize=auto;html=1;" edge="1" parent="WIyWlLk6GJQsqaUBKTNV-1" source="WIyWlLk6GJQsqaUBKTNV-7" target="djVUYxhhLj313IWxccLk-23">
          <mxGeometry relative="1" as="geometry" />
        </mxCell>
        <mxCell id="WIyWlLk6GJQsqaUBKTNV-7" value="Healer &amp;amp; Support" style="rounded=1;whiteSpace=wrap;html=1;fontSize=12;glass=0;strokeWidth=1;shadow=0;" parent="WIyWlLk6GJQsqaUBKTNV-1" vertex="1">
          <mxGeometry x="280" y="120" width="120" height="40" as="geometry" />
        </mxCell>
        <mxCell id="djVUYxhhLj313IWxccLk-15" value="" style="edgeStyle=orthogonalEdgeStyle;rounded=0;orthogonalLoop=1;jettySize=auto;html=1;" edge="1" parent="WIyWlLk6GJQsqaUBKTNV-1" source="djVUYxhhLj313IWxccLk-3" target="djVUYxhhLj313IWxccLk-14">
          <mxGeometry relative="1" as="geometry" />
        </mxCell>
        <mxCell id="djVUYxhhLj313IWxccLk-3" value="Free allies in prison" style="rounded=1;whiteSpace=wrap;html=1;fontSize=12;glass=0;strokeWidth=1;shadow=0;fillColor=#f8cecc;strokeColor=#b85450;" vertex="1" parent="WIyWlLk6GJQsqaUBKTNV-1">
          <mxGeometry x="180" y="370" width="120" height="40" as="geometry" />
        </mxCell>
        <mxCell id="djVUYxhhLj313IWxccLk-104" value="" style="edgeStyle=orthogonalEdgeStyle;rounded=0;orthogonalLoop=1;jettySize=auto;html=1;" edge="1" parent="WIyWlLk6GJQsqaUBKTNV-1" source="djVUYxhhLj313IWxccLk-4" target="djVUYxhhLj313IWxccLk-103">
          <mxGeometry relative="1" as="geometry" />
        </mxCell>
        <mxCell id="djVUYxhhLj313IWxccLk-4" value="speed up the knock down period" style="rounded=1;whiteSpace=wrap;html=1;fontSize=12;glass=0;strokeWidth=1;shadow=0;" vertex="1" parent="WIyWlLk6GJQsqaUBKTNV-1">
          <mxGeometry x="370" y="460" width="120" height="40" as="geometry" />
        </mxCell>
        <mxCell id="djVUYxhhLj313IWxccLk-5" value="Action" style="text;html=1;strokeColor=none;fillColor=none;align=center;verticalAlign=middle;whiteSpace=wrap;rounded=0;" vertex="1" parent="WIyWlLk6GJQsqaUBKTNV-1">
          <mxGeometry x="180" y="340" width="60" height="30" as="geometry" />
        </mxCell>
        <mxCell id="djVUYxhhLj313IWxccLk-6" value="Effect" style="text;html=1;strokeColor=none;fillColor=none;align=center;verticalAlign=middle;whiteSpace=wrap;rounded=0;" vertex="1" parent="WIyWlLk6GJQsqaUBKTNV-1">
          <mxGeometry x="370" y="430" width="60" height="30" as="geometry" />
        </mxCell>
        <mxCell id="djVUYxhhLj313IWxccLk-8" value="" style="edgeStyle=orthogonalEdgeStyle;rounded=0;orthogonalLoop=1;jettySize=auto;html=1;" edge="1" parent="WIyWlLk6GJQsqaUBKTNV-1" source="djVUYxhhLj313IWxccLk-7" target="djVUYxhhLj313IWxccLk-4">
          <mxGeometry relative="1" as="geometry" />
        </mxCell>
        <mxCell id="djVUYxhhLj313IWxccLk-7" value="Heal knockdown player" style="rounded=1;whiteSpace=wrap;html=1;fontSize=12;glass=0;strokeWidth=1;shadow=0;fillColor=#f8cecc;strokeColor=#b85450;" vertex="1" parent="WIyWlLk6GJQsqaUBKTNV-1">
          <mxGeometry x="370" y="370" width="120" height="40" as="geometry" />
        </mxCell>
        <mxCell id="djVUYxhhLj313IWxccLk-71" value="" style="edgeStyle=orthogonalEdgeStyle;rounded=0;orthogonalLoop=1;jettySize=auto;html=1;" edge="1" parent="WIyWlLk6GJQsqaUBKTNV-1" source="djVUYxhhLj313IWxccLk-14" target="djVUYxhhLj313IWxccLk-68">
          <mxGeometry relative="1" as="geometry" />
        </mxCell>
        <mxCell id="djVUYxhhLj313IWxccLk-14" value="Walk into enemy prison" style="rounded=1;whiteSpace=wrap;html=1;fontSize=12;glass=0;strokeWidth=1;shadow=0;" vertex="1" parent="WIyWlLk6GJQsqaUBKTNV-1">
          <mxGeometry x="180" y="450" width="120" height="40" as="geometry" />
        </mxCell>
        <mxCell id="djVUYxhhLj313IWxccLk-42" value="" style="edgeStyle=orthogonalEdgeStyle;rounded=0;orthogonalLoop=1;jettySize=auto;html=1;" edge="1" parent="WIyWlLk6GJQsqaUBKTNV-1" source="djVUYxhhLj313IWxccLk-23" target="djVUYxhhLj313IWxccLk-41">
          <mxGeometry relative="1" as="geometry" />
        </mxCell>
        <mxCell id="djVUYxhhLj313IWxccLk-23" value="Tower / Benteng" style="rounded=1;whiteSpace=wrap;html=1;fontSize=12;glass=0;strokeWidth=1;shadow=0;" vertex="1" parent="WIyWlLk6GJQsqaUBKTNV-1">
          <mxGeometry x="280" y="200" width="120" height="40" as="geometry" />
        </mxCell>
        <mxCell id="djVUYxhhLj313IWxccLk-33" value="Yes" style="text;html=1;strokeColor=none;fillColor=none;align=center;verticalAlign=middle;whiteSpace=wrap;rounded=0;" vertex="1" parent="WIyWlLk6GJQsqaUBKTNV-1">
          <mxGeometry x="150" y="530" width="60" height="20" as="geometry" />
        </mxCell>
        <mxCell id="djVUYxhhLj313IWxccLk-43" style="edgeStyle=orthogonalEdgeStyle;rounded=0;orthogonalLoop=1;jettySize=auto;html=1;exitX=0.5;exitY=1;exitDx=0;exitDy=0;" edge="1" parent="WIyWlLk6GJQsqaUBKTNV-1" source="djVUYxhhLj313IWxccLk-41" target="djVUYxhhLj313IWxccLk-3">
          <mxGeometry relative="1" as="geometry" />
        </mxCell>
        <mxCell id="djVUYxhhLj313IWxccLk-44" style="edgeStyle=orthogonalEdgeStyle;rounded=0;orthogonalLoop=1;jettySize=auto;html=1;exitX=0.5;exitY=1;exitDx=0;exitDy=0;" edge="1" parent="WIyWlLk6GJQsqaUBKTNV-1" source="djVUYxhhLj313IWxccLk-41" target="djVUYxhhLj313IWxccLk-7">
          <mxGeometry relative="1" as="geometry" />
        </mxCell>
        <mxCell id="djVUYxhhLj313IWxccLk-41" value="Move Vertical &amp;amp; Horizontal" style="rounded=1;whiteSpace=wrap;html=1;fontSize=12;glass=0;strokeWidth=1;shadow=0;" vertex="1" parent="WIyWlLk6GJQsqaUBKTNV-1">
          <mxGeometry x="280" y="280" width="120" height="40" as="geometry" />
        </mxCell>
        <mxCell id="djVUYxhhLj313IWxccLk-75" style="edgeStyle=orthogonalEdgeStyle;rounded=0;orthogonalLoop=1;jettySize=auto;html=1;exitX=1;exitY=0.5;exitDx=0;exitDy=0;entryX=1;entryY=0.5;entryDx=0;entryDy=0;" edge="1" parent="WIyWlLk6GJQsqaUBKTNV-1" source="djVUYxhhLj313IWxccLk-50" target="djVUYxhhLj313IWxccLk-73">
          <mxGeometry relative="1" as="geometry" />
        </mxCell>
        <mxCell id="djVUYxhhLj313IWxccLk-50" value="Shoot her while move horizontal&amp;nbsp;" style="rounded=1;whiteSpace=wrap;html=1;fontSize=12;glass=0;strokeWidth=1;shadow=0;" vertex="1" parent="WIyWlLk6GJQsqaUBKTNV-1">
          <mxGeometry x="180" y="750" width="120" height="40" as="geometry" />
        </mxCell>
        <mxCell id="djVUYxhhLj313IWxccLk-52" value="Yes" style="text;html=1;strokeColor=none;fillColor=none;align=center;verticalAlign=middle;whiteSpace=wrap;rounded=0;" vertex="1" parent="WIyWlLk6GJQsqaUBKTNV-1">
          <mxGeometry x="230" y="710" width="60" height="30" as="geometry" />
        </mxCell>
        <mxCell id="djVUYxhhLj313IWxccLk-91" value="" style="edgeStyle=orthogonalEdgeStyle;rounded=0;orthogonalLoop=1;jettySize=auto;html=1;" edge="1" parent="WIyWlLk6GJQsqaUBKTNV-1" source="djVUYxhhLj313IWxccLk-58" target="djVUYxhhLj313IWxccLk-90">
          <mxGeometry relative="1" as="geometry" />
        </mxCell>
        <mxCell id="djVUYxhhLj313IWxccLk-58" value="Save Ally from jail" style="rounded=1;whiteSpace=wrap;html=1;fontSize=12;glass=0;strokeWidth=1;shadow=0;" vertex="1" parent="WIyWlLk6GJQsqaUBKTNV-1">
          <mxGeometry x="30" y="650" width="120" height="40" as="geometry" />
        </mxCell>
        <mxCell id="djVUYxhhLj313IWxccLk-65" value="" style="edgeStyle=orthogonalEdgeStyle;rounded=0;orthogonalLoop=1;jettySize=auto;html=1;" edge="1" parent="WIyWlLk6GJQsqaUBKTNV-1" source="djVUYxhhLj313IWxccLk-61" target="djVUYxhhLj313IWxccLk-64">
          <mxGeometry relative="1" as="geometry" />
        </mxCell>
        <mxCell id="djVUYxhhLj313IWxccLk-61" value="Knockdown" style="rounded=1;whiteSpace=wrap;html=1;fontSize=12;glass=0;strokeWidth=1;shadow=0;" vertex="1" parent="WIyWlLk6GJQsqaUBKTNV-1">
          <mxGeometry x="30" y="584.5" width="120" height="40" as="geometry" />
        </mxCell>
        <mxCell id="djVUYxhhLj313IWxccLk-85" value="" style="edgeStyle=orthogonalEdgeStyle;rounded=0;orthogonalLoop=1;jettySize=auto;html=1;" edge="1" parent="WIyWlLk6GJQsqaUBKTNV-1" source="djVUYxhhLj313IWxccLk-64" target="djVUYxhhLj313IWxccLk-84">
          <mxGeometry relative="1" as="geometry" />
        </mxCell>
        <mxCell id="djVUYxhhLj313IWxccLk-87" style="edgeStyle=orthogonalEdgeStyle;rounded=0;orthogonalLoop=1;jettySize=auto;html=1;exitX=0;exitY=0.5;exitDx=0;exitDy=0;entryX=0;entryY=0.5;entryDx=0;entryDy=0;" edge="1" parent="WIyWlLk6GJQsqaUBKTNV-1" source="djVUYxhhLj313IWxccLk-64" target="djVUYxhhLj313IWxccLk-23">
          <mxGeometry relative="1" as="geometry">
            <Array as="points">
              <mxPoint x="10" y="460" />
              <mxPoint x="10" y="220" />
            </Array>
          </mxGeometry>
        </mxCell>
        <mxCell id="djVUYxhhLj313IWxccLk-64" value="taken to prison" style="rhombus;whiteSpace=wrap;html=1;rounded=1;glass=0;strokeWidth=1;shadow=0;" vertex="1" parent="WIyWlLk6GJQsqaUBKTNV-1">
          <mxGeometry x="50" y="420" width="80" height="80" as="geometry" />
        </mxCell>
        <mxCell id="djVUYxhhLj313IWxccLk-70" value="" style="edgeStyle=orthogonalEdgeStyle;rounded=0;orthogonalLoop=1;jettySize=auto;html=1;" edge="1" parent="WIyWlLk6GJQsqaUBKTNV-1" source="djVUYxhhLj313IWxccLk-68" target="djVUYxhhLj313IWxccLk-61">
          <mxGeometry relative="1" as="geometry" />
        </mxCell>
        <mxCell id="djVUYxhhLj313IWxccLk-78" value="" style="edgeStyle=orthogonalEdgeStyle;rounded=0;orthogonalLoop=1;jettySize=auto;html=1;" edge="1" parent="WIyWlLk6GJQsqaUBKTNV-1" source="djVUYxhhLj313IWxccLk-68" target="djVUYxhhLj313IWxccLk-73">
          <mxGeometry relative="1" as="geometry" />
        </mxCell>
        <mxCell id="djVUYxhhLj313IWxccLk-68" value="Hp = 0" style="rhombus;whiteSpace=wrap;html=1;rounded=1;glass=0;strokeWidth=1;shadow=0;" vertex="1" parent="WIyWlLk6GJQsqaUBKTNV-1">
          <mxGeometry x="200" y="510" width="80" height="80" as="geometry" />
        </mxCell>
        <mxCell id="djVUYxhhLj313IWxccLk-76" value="" style="edgeStyle=orthogonalEdgeStyle;rounded=0;orthogonalLoop=1;jettySize=auto;html=1;" edge="1" parent="WIyWlLk6GJQsqaUBKTNV-1" source="djVUYxhhLj313IWxccLk-73" target="djVUYxhhLj313IWxccLk-50">
          <mxGeometry relative="1" as="geometry" />
        </mxCell>
        <mxCell id="djVUYxhhLj313IWxccLk-77" value="" style="edgeStyle=orthogonalEdgeStyle;rounded=0;orthogonalLoop=1;jettySize=auto;html=1;" edge="1" parent="WIyWlLk6GJQsqaUBKTNV-1" source="djVUYxhhLj313IWxccLk-73" target="djVUYxhhLj313IWxccLk-58">
          <mxGeometry relative="1" as="geometry" />
        </mxCell>
        <mxCell id="djVUYxhhLj313IWxccLk-73" value="Block by Tanker" style="rhombus;whiteSpace=wrap;html=1;rounded=1;glass=0;strokeWidth=1;shadow=0;" vertex="1" parent="WIyWlLk6GJQsqaUBKTNV-1">
          <mxGeometry x="200" y="630" width="80" height="80" as="geometry" />
        </mxCell>
        <mxCell id="djVUYxhhLj313IWxccLk-84" value="Ally in prison and can&#39;t be use" style="whiteSpace=wrap;html=1;rounded=1;glass=0;strokeWidth=1;shadow=0;" vertex="1" parent="WIyWlLk6GJQsqaUBKTNV-1">
          <mxGeometry x="30" y="340" width="120" height="45" as="geometry" />
        </mxCell>
        <mxCell id="djVUYxhhLj313IWxccLk-86" value="Yes" style="text;html=1;strokeColor=none;fillColor=none;align=center;verticalAlign=middle;whiteSpace=wrap;rounded=0;" vertex="1" parent="WIyWlLk6GJQsqaUBKTNV-1">
          <mxGeometry x="90" y="400" width="60" height="20" as="geometry" />
        </mxCell>
        <mxCell id="djVUYxhhLj313IWxccLk-97" style="edgeStyle=orthogonalEdgeStyle;rounded=0;orthogonalLoop=1;jettySize=auto;html=1;exitX=0;exitY=0.5;exitDx=0;exitDy=0;entryX=0;entryY=0.5;entryDx=0;entryDy=0;" edge="1" parent="WIyWlLk6GJQsqaUBKTNV-1" source="djVUYxhhLj313IWxccLk-90" target="djVUYxhhLj313IWxccLk-61">
          <mxGeometry relative="1" as="geometry" />
        </mxCell>
        <mxCell id="djVUYxhhLj313IWxccLk-225" value="" style="edgeStyle=orthogonalEdgeStyle;rounded=0;orthogonalLoop=1;jettySize=auto;html=1;" edge="1" parent="WIyWlLk6GJQsqaUBKTNV-1" source="djVUYxhhLj313IWxccLk-90" target="djVUYxhhLj313IWxccLk-224">
          <mxGeometry relative="1" as="geometry" />
        </mxCell>
        <mxCell id="djVUYxhhLj313IWxccLk-90" value="Hp = 0" style="rhombus;whiteSpace=wrap;html=1;rounded=1;glass=0;strokeWidth=1;shadow=0;" vertex="1" parent="WIyWlLk6GJQsqaUBKTNV-1">
          <mxGeometry x="50" y="720" width="80" height="80" as="geometry" />
        </mxCell>
        <mxCell id="djVUYxhhLj313IWxccLk-95" value="" style="edgeStyle=orthogonalEdgeStyle;rounded=0;orthogonalLoop=1;jettySize=auto;html=1;" edge="1" parent="WIyWlLk6GJQsqaUBKTNV-1" source="djVUYxhhLj313IWxccLk-92" target="djVUYxhhLj313IWxccLk-94">
          <mxGeometry relative="1" as="geometry" />
        </mxCell>
        <mxCell id="djVUYxhhLj313IWxccLk-101" style="edgeStyle=orthogonalEdgeStyle;rounded=0;orthogonalLoop=1;jettySize=auto;html=1;exitX=1;exitY=0.5;exitDx=0;exitDy=0;entryX=1;entryY=0.5;entryDx=0;entryDy=0;" edge="1" parent="WIyWlLk6GJQsqaUBKTNV-1" source="djVUYxhhLj313IWxccLk-92" target="djVUYxhhLj313IWxccLk-90">
          <mxGeometry relative="1" as="geometry">
            <Array as="points">
              <mxPoint x="170" y="960" />
              <mxPoint x="170" y="760" />
            </Array>
          </mxGeometry>
        </mxCell>
        <mxCell id="djVUYxhhLj313IWxccLk-92" value="5 secon = reached" style="rhombus;whiteSpace=wrap;html=1;rounded=1;glass=0;strokeWidth=1;shadow=0;" vertex="1" parent="WIyWlLk6GJQsqaUBKTNV-1">
          <mxGeometry x="50" y="920" width="80" height="80" as="geometry" />
        </mxCell>
        <mxCell id="djVUYxhhLj313IWxccLk-96" style="edgeStyle=orthogonalEdgeStyle;rounded=0;orthogonalLoop=1;jettySize=auto;html=1;exitX=1;exitY=0.5;exitDx=0;exitDy=0;entryX=1;entryY=0.5;entryDx=0;entryDy=0;" edge="1" parent="WIyWlLk6GJQsqaUBKTNV-1" source="djVUYxhhLj313IWxccLk-94" target="djVUYxhhLj313IWxccLk-90">
          <mxGeometry relative="1" as="geometry" />
        </mxCell>
        <mxCell id="djVUYxhhLj313IWxccLk-94" value="1 ally is free" style="whiteSpace=wrap;html=1;rounded=1;glass=0;strokeWidth=1;shadow=0;" vertex="1" parent="WIyWlLk6GJQsqaUBKTNV-1">
          <mxGeometry x="30" y="1040" width="120" height="40" as="geometry" />
        </mxCell>
        <mxCell id="djVUYxhhLj313IWxccLk-98" value="Yes" style="text;html=1;strokeColor=none;fillColor=none;align=center;verticalAlign=middle;whiteSpace=wrap;rounded=0;" vertex="1" parent="WIyWlLk6GJQsqaUBKTNV-1">
          <mxGeometry x="10" y="740" width="60" height="20" as="geometry" />
        </mxCell>
        <mxCell id="djVUYxhhLj313IWxccLk-99" value="Yes" style="text;html=1;strokeColor=none;fillColor=none;align=center;verticalAlign=middle;whiteSpace=wrap;rounded=0;" vertex="1" parent="WIyWlLk6GJQsqaUBKTNV-1">
          <mxGeometry x="80" y="1000" width="60" height="20" as="geometry" />
        </mxCell>
        <mxCell id="djVUYxhhLj313IWxccLk-110" value="" style="edgeStyle=orthogonalEdgeStyle;rounded=0;orthogonalLoop=1;jettySize=auto;html=1;" edge="1" parent="WIyWlLk6GJQsqaUBKTNV-1" source="djVUYxhhLj313IWxccLk-103" target="djVUYxhhLj313IWxccLk-109">
          <mxGeometry relative="1" as="geometry" />
        </mxCell>
        <mxCell id="djVUYxhhLj313IWxccLk-103" value="HP player = full" style="rhombus;whiteSpace=wrap;html=1;rounded=1;glass=0;strokeWidth=1;shadow=0;" vertex="1" parent="WIyWlLk6GJQsqaUBKTNV-1">
          <mxGeometry x="390" y="530" width="80" height="80" as="geometry" />
        </mxCell>
        <mxCell id="djVUYxhhLj313IWxccLk-111" style="edgeStyle=orthogonalEdgeStyle;rounded=0;orthogonalLoop=1;jettySize=auto;html=1;exitX=1;exitY=0.5;exitDx=0;exitDy=0;entryX=1;entryY=0.5;entryDx=0;entryDy=0;" edge="1" parent="WIyWlLk6GJQsqaUBKTNV-1" source="djVUYxhhLj313IWxccLk-109" target="djVUYxhhLj313IWxccLk-4">
          <mxGeometry relative="1" as="geometry">
            <Array as="points">
              <mxPoint x="510" y="680" />
              <mxPoint x="510" y="480" />
            </Array>
          </mxGeometry>
        </mxCell>
        <mxCell id="djVUYxhhLj313IWxccLk-112" style="edgeStyle=orthogonalEdgeStyle;rounded=0;orthogonalLoop=1;jettySize=auto;html=1;exitX=0;exitY=0.5;exitDx=0;exitDy=0;entryX=1;entryY=0.5;entryDx=0;entryDy=0;" edge="1" parent="WIyWlLk6GJQsqaUBKTNV-1" source="djVUYxhhLj313IWxccLk-109" target="djVUYxhhLj313IWxccLk-61">
          <mxGeometry relative="1" as="geometry">
            <Array as="points">
              <mxPoint x="360" y="680" />
              <mxPoint x="360" y="605" />
            </Array>
          </mxGeometry>
        </mxCell>
        <mxCell id="djVUYxhhLj313IWxccLk-109" value="Hp = 0" style="rhombus;whiteSpace=wrap;html=1;rounded=1;glass=0;strokeWidth=1;shadow=0;" vertex="1" parent="WIyWlLk6GJQsqaUBKTNV-1">
          <mxGeometry x="390" y="640" width="80" height="80" as="geometry" />
        </mxCell>
        <mxCell id="djVUYxhhLj313IWxccLk-115" value="" style="edgeStyle=orthogonalEdgeStyle;rounded=0;orthogonalLoop=1;jettySize=auto;html=1;" edge="1" parent="WIyWlLk6GJQsqaUBKTNV-1" source="djVUYxhhLj313IWxccLk-113" target="djVUYxhhLj313IWxccLk-114">
          <mxGeometry relative="1" as="geometry" />
        </mxCell>
        <mxCell id="djVUYxhhLj313IWxccLk-113" value="Tanker" style="rounded=1;whiteSpace=wrap;html=1;fontSize=12;glass=0;strokeWidth=1;shadow=0;" vertex="1" parent="WIyWlLk6GJQsqaUBKTNV-1">
          <mxGeometry x="920" y="120" width="120" height="40" as="geometry" />
        </mxCell>
        <mxCell id="djVUYxhhLj313IWxccLk-117" value="" style="edgeStyle=orthogonalEdgeStyle;rounded=0;orthogonalLoop=1;jettySize=auto;html=1;" edge="1" parent="WIyWlLk6GJQsqaUBKTNV-1" source="djVUYxhhLj313IWxccLk-114" target="djVUYxhhLj313IWxccLk-116">
          <mxGeometry relative="1" as="geometry" />
        </mxCell>
        <mxCell id="djVUYxhhLj313IWxccLk-114" value="Tower / Benteng" style="rounded=1;whiteSpace=wrap;html=1;fontSize=12;glass=0;strokeWidth=1;shadow=0;" vertex="1" parent="WIyWlLk6GJQsqaUBKTNV-1">
          <mxGeometry x="920" y="200" width="120" height="40" as="geometry" />
        </mxCell>
        <mxCell id="djVUYxhhLj313IWxccLk-122" value="" style="edgeStyle=orthogonalEdgeStyle;rounded=0;orthogonalLoop=1;jettySize=auto;html=1;" edge="1" parent="WIyWlLk6GJQsqaUBKTNV-1" source="djVUYxhhLj313IWxccLk-116" target="djVUYxhhLj313IWxccLk-121">
          <mxGeometry relative="1" as="geometry" />
        </mxCell>
        <mxCell id="djVUYxhhLj313IWxccLk-116" value="Stay base area" style="rounded=1;whiteSpace=wrap;html=1;fontSize=12;glass=0;strokeWidth=1;shadow=0;" vertex="1" parent="WIyWlLk6GJQsqaUBKTNV-1">
          <mxGeometry x="920" y="280" width="120" height="40" as="geometry" />
        </mxCell>
        <mxCell id="djVUYxhhLj313IWxccLk-118" value="Summon" style="text;html=1;strokeColor=none;fillColor=none;align=center;verticalAlign=middle;whiteSpace=wrap;rounded=0;" vertex="1" parent="WIyWlLk6GJQsqaUBKTNV-1">
          <mxGeometry x="354" y="170" width="60" height="30" as="geometry" />
        </mxCell>
        <mxCell id="djVUYxhhLj313IWxccLk-119" value="Summon" style="text;html=1;strokeColor=none;fillColor=none;align=center;verticalAlign=middle;whiteSpace=wrap;rounded=0;" vertex="1" parent="WIyWlLk6GJQsqaUBKTNV-1">
          <mxGeometry x="990" y="170" width="60" height="30" as="geometry" />
        </mxCell>
        <mxCell id="djVUYxhhLj313IWxccLk-120" value="Action" style="text;html=1;strokeColor=none;fillColor=none;align=center;verticalAlign=middle;whiteSpace=wrap;rounded=0;" vertex="1" parent="WIyWlLk6GJQsqaUBKTNV-1">
          <mxGeometry x="890" y="330" width="60" height="30" as="geometry" />
        </mxCell>
        <mxCell id="djVUYxhhLj313IWxccLk-147" value="" style="edgeStyle=orthogonalEdgeStyle;rounded=0;orthogonalLoop=1;jettySize=auto;html=1;" edge="1" parent="WIyWlLk6GJQsqaUBKTNV-1" source="djVUYxhhLj313IWxccLk-121" target="djVUYxhhLj313IWxccLk-125">
          <mxGeometry relative="1" as="geometry" />
        </mxCell>
        <mxCell id="djVUYxhhLj313IWxccLk-121" value="Defend the base area" style="rounded=1;whiteSpace=wrap;html=1;fontSize=12;glass=0;strokeWidth=1;shadow=0;fillColor=#f8cecc;strokeColor=#b85450;" vertex="1" parent="WIyWlLk6GJQsqaUBKTNV-1">
          <mxGeometry x="920" y="360" width="120" height="40" as="geometry" />
        </mxCell>
        <mxCell id="djVUYxhhLj313IWxccLk-128" style="edgeStyle=orthogonalEdgeStyle;rounded=0;orthogonalLoop=1;jettySize=auto;html=1;exitX=0;exitY=0.5;exitDx=0;exitDy=0;entryX=0;entryY=0.5;entryDx=0;entryDy=0;" edge="1" parent="WIyWlLk6GJQsqaUBKTNV-1" source="djVUYxhhLj313IWxccLk-125" target="djVUYxhhLj313IWxccLk-114">
          <mxGeometry relative="1" as="geometry">
            <Array as="points">
              <mxPoint x="880" y="470" />
              <mxPoint x="880" y="220" />
            </Array>
          </mxGeometry>
        </mxCell>
        <mxCell id="djVUYxhhLj313IWxccLk-131" value="" style="edgeStyle=orthogonalEdgeStyle;rounded=0;orthogonalLoop=1;jettySize=auto;html=1;" edge="1" parent="WIyWlLk6GJQsqaUBKTNV-1" source="djVUYxhhLj313IWxccLk-125" target="djVUYxhhLj313IWxccLk-130">
          <mxGeometry relative="1" as="geometry" />
        </mxCell>
        <mxCell id="djVUYxhhLj313IWxccLk-125" value="Stamina = 0" style="rhombus;whiteSpace=wrap;html=1;rounded=1;glass=0;strokeWidth=1;shadow=0;" vertex="1" parent="WIyWlLk6GJQsqaUBKTNV-1">
          <mxGeometry x="940" y="430" width="80" height="80" as="geometry" />
        </mxCell>
        <mxCell id="djVUYxhhLj313IWxccLk-129" value="Yes" style="text;html=1;strokeColor=none;fillColor=none;align=center;verticalAlign=middle;whiteSpace=wrap;rounded=0;" vertex="1" parent="WIyWlLk6GJQsqaUBKTNV-1">
          <mxGeometry x="880" y="450" width="60" height="20" as="geometry" />
        </mxCell>
        <mxCell id="djVUYxhhLj313IWxccLk-142" value="" style="edgeStyle=orthogonalEdgeStyle;rounded=0;orthogonalLoop=1;jettySize=auto;html=1;" edge="1" parent="WIyWlLk6GJQsqaUBKTNV-1" source="djVUYxhhLj313IWxccLk-130" target="djVUYxhhLj313IWxccLk-134">
          <mxGeometry relative="1" as="geometry" />
        </mxCell>
        <mxCell id="djVUYxhhLj313IWxccLk-130" value="Hp = 0" style="rhombus;whiteSpace=wrap;html=1;rounded=1;glass=0;strokeWidth=1;shadow=0;" vertex="1" parent="WIyWlLk6GJQsqaUBKTNV-1">
          <mxGeometry x="1050" y="430" width="80" height="80" as="geometry" />
        </mxCell>
        <mxCell id="djVUYxhhLj313IWxccLk-151" style="edgeStyle=orthogonalEdgeStyle;rounded=0;orthogonalLoop=1;jettySize=auto;html=1;exitX=0.5;exitY=0;exitDx=0;exitDy=0;entryX=1;entryY=0.5;entryDx=0;entryDy=0;" edge="1" parent="WIyWlLk6GJQsqaUBKTNV-1" source="djVUYxhhLj313IWxccLk-134" target="djVUYxhhLj313IWxccLk-121">
          <mxGeometry relative="1" as="geometry" />
        </mxCell>
        <mxCell id="djVUYxhhLj313IWxccLk-203" style="edgeStyle=orthogonalEdgeStyle;rounded=0;orthogonalLoop=1;jettySize=auto;html=1;exitX=0.5;exitY=1;exitDx=0;exitDy=0;" edge="1" parent="WIyWlLk6GJQsqaUBKTNV-1" source="djVUYxhhLj313IWxccLk-134" target="djVUYxhhLj313IWxccLk-202">
          <mxGeometry relative="1" as="geometry" />
        </mxCell>
        <mxCell id="djVUYxhhLj313IWxccLk-134" value="Meet Enemy" style="rhombus;whiteSpace=wrap;html=1;rounded=1;glass=0;strokeWidth=1;shadow=0;" vertex="1" parent="WIyWlLk6GJQsqaUBKTNV-1">
          <mxGeometry x="1161" y="430" width="80" height="80" as="geometry" />
        </mxCell>
        <mxCell id="djVUYxhhLj313IWxccLk-141" value="" style="edgeStyle=orthogonalEdgeStyle;rounded=0;orthogonalLoop=1;jettySize=auto;html=1;" edge="1" parent="WIyWlLk6GJQsqaUBKTNV-1" source="djVUYxhhLj313IWxccLk-137" target="djVUYxhhLj313IWxccLk-140">
          <mxGeometry relative="1" as="geometry" />
        </mxCell>
        <mxCell id="djVUYxhhLj313IWxccLk-137" value="Move horizontal&amp;nbsp;" style="whiteSpace=wrap;html=1;rounded=1;glass=0;strokeWidth=1;shadow=0;" vertex="1" parent="WIyWlLk6GJQsqaUBKTNV-1">
          <mxGeometry x="1141.5" y="710" width="120" height="40" as="geometry" />
        </mxCell>
        <mxCell id="djVUYxhhLj313IWxccLk-165" value="" style="edgeStyle=orthogonalEdgeStyle;rounded=0;orthogonalLoop=1;jettySize=auto;html=1;" edge="1" parent="WIyWlLk6GJQsqaUBKTNV-1" source="djVUYxhhLj313IWxccLk-140" target="djVUYxhhLj313IWxccLk-164">
          <mxGeometry relative="1" as="geometry" />
        </mxCell>
        <mxCell id="djVUYxhhLj313IWxccLk-140" value="Block the enemy" style="whiteSpace=wrap;html=1;rounded=1;glass=0;strokeWidth=1;shadow=0;" vertex="1" parent="WIyWlLk6GJQsqaUBKTNV-1">
          <mxGeometry x="1141.5" y="775" width="120" height="40" as="geometry" />
        </mxCell>
        <mxCell id="djVUYxhhLj313IWxccLk-187" value="" style="edgeStyle=orthogonalEdgeStyle;rounded=0;orthogonalLoop=1;jettySize=auto;html=1;" edge="1" parent="WIyWlLk6GJQsqaUBKTNV-1" source="djVUYxhhLj313IWxccLk-157" target="djVUYxhhLj313IWxccLk-186">
          <mxGeometry relative="1" as="geometry" />
        </mxCell>
        <mxCell id="djVUYxhhLj313IWxccLk-157" value="Knock-Back the enemy" style="whiteSpace=wrap;html=1;rounded=1;glass=0;strokeWidth=1;shadow=0;fillColor=#f8cecc;strokeColor=#b85450;" vertex="1" parent="WIyWlLk6GJQsqaUBKTNV-1">
          <mxGeometry x="1320" y="710" width="120" height="40" as="geometry" />
        </mxCell>
        <mxCell id="djVUYxhhLj313IWxccLk-159" value="Action" style="text;html=1;strokeColor=none;fillColor=none;align=center;verticalAlign=middle;whiteSpace=wrap;rounded=0;" vertex="1" parent="WIyWlLk6GJQsqaUBKTNV-1">
          <mxGeometry x="1310" y="685" width="60" height="30" as="geometry" />
        </mxCell>
        <mxCell id="djVUYxhhLj313IWxccLk-160" value="Yes" style="text;html=1;strokeColor=none;fillColor=none;align=center;verticalAlign=middle;whiteSpace=wrap;rounded=0;" vertex="1" parent="WIyWlLk6GJQsqaUBKTNV-1">
          <mxGeometry x="1241" y="630" width="60" height="20" as="geometry" />
        </mxCell>
        <mxCell id="djVUYxhhLj313IWxccLk-167" value="" style="edgeStyle=orthogonalEdgeStyle;rounded=0;orthogonalLoop=1;jettySize=auto;html=1;" edge="1" parent="WIyWlLk6GJQsqaUBKTNV-1" source="djVUYxhhLj313IWxccLk-164" target="djVUYxhhLj313IWxccLk-166">
          <mxGeometry relative="1" as="geometry" />
        </mxCell>
        <mxCell id="djVUYxhhLj313IWxccLk-164" value="stamina is not consumed" style="whiteSpace=wrap;html=1;rounded=1;glass=0;strokeWidth=1;shadow=0;" vertex="1" parent="WIyWlLk6GJQsqaUBKTNV-1">
          <mxGeometry x="1140.5" y="845" width="120" height="40" as="geometry" />
        </mxCell>
        <mxCell id="djVUYxhhLj313IWxccLk-169" value="" style="edgeStyle=orthogonalEdgeStyle;rounded=0;orthogonalLoop=1;jettySize=auto;html=1;" edge="1" parent="WIyWlLk6GJQsqaUBKTNV-1" source="djVUYxhhLj313IWxccLk-166" target="djVUYxhhLj313IWxccLk-168">
          <mxGeometry relative="1" as="geometry" />
        </mxCell>
        <mxCell id="djVUYxhhLj313IWxccLk-177" style="edgeStyle=orthogonalEdgeStyle;rounded=0;orthogonalLoop=1;jettySize=auto;html=1;exitX=1;exitY=0.5;exitDx=0;exitDy=0;entryX=1;entryY=0.5;entryDx=0;entryDy=0;" edge="1" parent="WIyWlLk6GJQsqaUBKTNV-1" source="djVUYxhhLj313IWxccLk-166" target="djVUYxhhLj313IWxccLk-137">
          <mxGeometry relative="1" as="geometry" />
        </mxCell>
        <mxCell id="djVUYxhhLj313IWxccLk-166" value="Hp =0" style="rhombus;whiteSpace=wrap;html=1;rounded=1;glass=0;strokeWidth=1;shadow=0;" vertex="1" parent="WIyWlLk6GJQsqaUBKTNV-1">
          <mxGeometry x="1160.5" y="925" width="80" height="80" as="geometry" />
        </mxCell>
        <mxCell id="djVUYxhhLj313IWxccLk-173" value="" style="edgeStyle=orthogonalEdgeStyle;rounded=0;orthogonalLoop=1;jettySize=auto;html=1;" edge="1" parent="WIyWlLk6GJQsqaUBKTNV-1" source="djVUYxhhLj313IWxccLk-168" target="djVUYxhhLj313IWxccLk-171">
          <mxGeometry relative="1" as="geometry" />
        </mxCell>
        <mxCell id="djVUYxhhLj313IWxccLk-168" value="Knock-Down" style="whiteSpace=wrap;html=1;rounded=1;glass=0;strokeWidth=1;shadow=0;" vertex="1" parent="WIyWlLk6GJQsqaUBKTNV-1">
          <mxGeometry x="980" y="770" width="120" height="60" as="geometry" />
        </mxCell>
        <mxCell id="djVUYxhhLj313IWxccLk-170" value="Ally in prison and can&#39;t be use" style="whiteSpace=wrap;html=1;rounded=1;glass=0;strokeWidth=1;shadow=0;" vertex="1" parent="WIyWlLk6GJQsqaUBKTNV-1">
          <mxGeometry x="980" y="560" width="120" height="45" as="geometry" />
        </mxCell>
        <mxCell id="djVUYxhhLj313IWxccLk-174" value="" style="edgeStyle=orthogonalEdgeStyle;rounded=0;orthogonalLoop=1;jettySize=auto;html=1;" edge="1" parent="WIyWlLk6GJQsqaUBKTNV-1" source="djVUYxhhLj313IWxccLk-171" target="djVUYxhhLj313IWxccLk-170">
          <mxGeometry relative="1" as="geometry" />
        </mxCell>
        <mxCell id="djVUYxhhLj313IWxccLk-176" style="edgeStyle=orthogonalEdgeStyle;rounded=0;orthogonalLoop=1;jettySize=auto;html=1;exitX=0;exitY=0.5;exitDx=0;exitDy=0;entryX=0;entryY=0.5;entryDx=0;entryDy=0;" edge="1" parent="WIyWlLk6GJQsqaUBKTNV-1" source="djVUYxhhLj313IWxccLk-171" target="djVUYxhhLj313IWxccLk-114">
          <mxGeometry relative="1" as="geometry">
            <Array as="points">
              <mxPoint x="880" y="680" />
              <mxPoint x="880" y="220" />
            </Array>
          </mxGeometry>
        </mxCell>
        <mxCell id="djVUYxhhLj313IWxccLk-171" value="taken to prison" style="rhombus;whiteSpace=wrap;html=1;rounded=1;glass=0;strokeWidth=1;shadow=0;" vertex="1" parent="WIyWlLk6GJQsqaUBKTNV-1">
          <mxGeometry x="1000" y="640" width="80" height="80" as="geometry" />
        </mxCell>
        <mxCell id="djVUYxhhLj313IWxccLk-172" value="Yes" style="text;html=1;strokeColor=none;fillColor=none;align=center;verticalAlign=middle;whiteSpace=wrap;rounded=0;" vertex="1" parent="WIyWlLk6GJQsqaUBKTNV-1">
          <mxGeometry x="1040" y="620" width="60" height="20" as="geometry" />
        </mxCell>
        <mxCell id="djVUYxhhLj313IWxccLk-181" style="edgeStyle=orthogonalEdgeStyle;rounded=0;orthogonalLoop=1;jettySize=auto;html=1;exitX=0.5;exitY=1;exitDx=0;exitDy=0;entryX=0.5;entryY=0;entryDx=0;entryDy=0;" edge="1" parent="WIyWlLk6GJQsqaUBKTNV-1" source="djVUYxhhLj313IWxccLk-178" target="djVUYxhhLj313IWxccLk-137">
          <mxGeometry relative="1" as="geometry" />
        </mxCell>
        <mxCell id="djVUYxhhLj313IWxccLk-183" value="" style="edgeStyle=orthogonalEdgeStyle;rounded=0;orthogonalLoop=1;jettySize=auto;html=1;" edge="1" parent="WIyWlLk6GJQsqaUBKTNV-1" source="djVUYxhhLj313IWxccLk-178" target="djVUYxhhLj313IWxccLk-182">
          <mxGeometry relative="1" as="geometry" />
        </mxCell>
        <mxCell id="djVUYxhhLj313IWxccLk-178" value="in the base area" style="rhombus;whiteSpace=wrap;html=1;rounded=1;glass=0;strokeWidth=1;shadow=0;" vertex="1" parent="WIyWlLk6GJQsqaUBKTNV-1">
          <mxGeometry x="1161" y="610" width="80" height="80" as="geometry" />
        </mxCell>
        <mxCell id="djVUYxhhLj313IWxccLk-185" value="" style="edgeStyle=orthogonalEdgeStyle;rounded=0;orthogonalLoop=1;jettySize=auto;html=1;" edge="1" parent="WIyWlLk6GJQsqaUBKTNV-1" source="djVUYxhhLj313IWxccLk-182" target="djVUYxhhLj313IWxccLk-157">
          <mxGeometry relative="1" as="geometry" />
        </mxCell>
        <mxCell id="djVUYxhhLj313IWxccLk-182" value="Move Horizontal &amp;amp; Vertikal" style="whiteSpace=wrap;html=1;rounded=1;glass=0;strokeWidth=1;shadow=0;" vertex="1" parent="WIyWlLk6GJQsqaUBKTNV-1">
          <mxGeometry x="1320" y="630" width="120" height="40" as="geometry" />
        </mxCell>
        <mxCell id="djVUYxhhLj313IWxccLk-184" value="Yes" style="text;html=1;strokeColor=none;fillColor=none;align=center;verticalAlign=middle;whiteSpace=wrap;rounded=0;" vertex="1" parent="WIyWlLk6GJQsqaUBKTNV-1">
          <mxGeometry x="1150" y="510" width="60" height="20" as="geometry" />
        </mxCell>
        <mxCell id="djVUYxhhLj313IWxccLk-188" style="edgeStyle=orthogonalEdgeStyle;rounded=0;orthogonalLoop=1;jettySize=auto;html=1;exitX=1;exitY=0.5;exitDx=0;exitDy=0;entryX=1;entryY=0.5;entryDx=0;entryDy=0;" edge="1" parent="WIyWlLk6GJQsqaUBKTNV-1" source="djVUYxhhLj313IWxccLk-186" target="djVUYxhhLj313IWxccLk-157">
          <mxGeometry relative="1" as="geometry">
            <Array as="points">
              <mxPoint x="1460" y="820" />
              <mxPoint x="1460" y="730" />
            </Array>
          </mxGeometry>
        </mxCell>
        <mxCell id="djVUYxhhLj313IWxccLk-190" value="" style="edgeStyle=orthogonalEdgeStyle;rounded=0;orthogonalLoop=1;jettySize=auto;html=1;" edge="1" parent="WIyWlLk6GJQsqaUBKTNV-1" source="djVUYxhhLj313IWxccLk-186" target="djVUYxhhLj313IWxccLk-189">
          <mxGeometry relative="1" as="geometry" />
        </mxCell>
        <mxCell id="djVUYxhhLj313IWxccLk-186" value="Stamina = 0" style="rhombus;whiteSpace=wrap;html=1;rounded=1;glass=0;strokeWidth=1;shadow=0;" vertex="1" parent="WIyWlLk6GJQsqaUBKTNV-1">
          <mxGeometry x="1340" y="780" width="80" height="80" as="geometry" />
        </mxCell>
        <mxCell id="djVUYxhhLj313IWxccLk-196" value="" style="edgeStyle=orthogonalEdgeStyle;rounded=0;orthogonalLoop=1;jettySize=auto;html=1;" edge="1" parent="WIyWlLk6GJQsqaUBKTNV-1" source="djVUYxhhLj313IWxccLk-189" target="djVUYxhhLj313IWxccLk-195">
          <mxGeometry relative="1" as="geometry" />
        </mxCell>
        <mxCell id="djVUYxhhLj313IWxccLk-189" value="Knock-Back = off" style="whiteSpace=wrap;html=1;rounded=1;glass=0;strokeWidth=1;shadow=0;" vertex="1" parent="WIyWlLk6GJQsqaUBKTNV-1">
          <mxGeometry x="1320" y="890" width="120" height="40" as="geometry" />
        </mxCell>
        <mxCell id="djVUYxhhLj313IWxccLk-191" value="Yes" style="text;html=1;strokeColor=none;fillColor=none;align=center;verticalAlign=middle;whiteSpace=wrap;rounded=0;" vertex="1" parent="WIyWlLk6GJQsqaUBKTNV-1">
          <mxGeometry x="1370" y="860" width="60" height="20" as="geometry" />
        </mxCell>
        <mxCell id="djVUYxhhLj313IWxccLk-193" value="Yes" style="text;html=1;strokeColor=none;fillColor=none;align=center;verticalAlign=middle;whiteSpace=wrap;rounded=0;" vertex="1" parent="WIyWlLk6GJQsqaUBKTNV-1">
          <mxGeometry x="1110" y="940" width="60" height="20" as="geometry" />
        </mxCell>
        <mxCell id="djVUYxhhLj313IWxccLk-197" style="edgeStyle=orthogonalEdgeStyle;rounded=0;orthogonalLoop=1;jettySize=auto;html=1;exitX=0;exitY=0.5;exitDx=0;exitDy=0;entryX=0.5;entryY=1;entryDx=0;entryDy=0;" edge="1" parent="WIyWlLk6GJQsqaUBKTNV-1" source="djVUYxhhLj313IWxccLk-195" target="djVUYxhhLj313IWxccLk-168">
          <mxGeometry relative="1" as="geometry" />
        </mxCell>
        <mxCell id="djVUYxhhLj313IWxccLk-206" style="edgeStyle=orthogonalEdgeStyle;rounded=0;orthogonalLoop=1;jettySize=auto;html=1;exitX=1;exitY=0.5;exitDx=0;exitDy=0;entryX=1;entryY=0;entryDx=0;entryDy=0;" edge="1" parent="WIyWlLk6GJQsqaUBKTNV-1" source="djVUYxhhLj313IWxccLk-195" target="djVUYxhhLj313IWxccLk-178">
          <mxGeometry relative="1" as="geometry">
            <Array as="points">
              <mxPoint x="1480" y="1030" />
              <mxPoint x="1480" y="600" />
              <mxPoint x="1221" y="600" />
            </Array>
          </mxGeometry>
        </mxCell>
        <mxCell id="djVUYxhhLj313IWxccLk-195" value="Hp =0" style="rhombus;whiteSpace=wrap;html=1;rounded=1;glass=0;strokeWidth=1;shadow=0;" vertex="1" parent="WIyWlLk6GJQsqaUBKTNV-1">
          <mxGeometry x="1340" y="990" width="80" height="80" as="geometry" />
        </mxCell>
        <mxCell id="djVUYxhhLj313IWxccLk-198" value="Yes" style="text;html=1;strokeColor=none;fillColor=none;align=center;verticalAlign=middle;whiteSpace=wrap;rounded=0;" vertex="1" parent="WIyWlLk6GJQsqaUBKTNV-1">
          <mxGeometry x="1280" y="1010" width="60" height="20" as="geometry" />
        </mxCell>
        <mxCell id="djVUYxhhLj313IWxccLk-204" value="" style="edgeStyle=orthogonalEdgeStyle;rounded=0;orthogonalLoop=1;jettySize=auto;html=1;" edge="1" parent="WIyWlLk6GJQsqaUBKTNV-1" source="djVUYxhhLj313IWxccLk-202" target="djVUYxhhLj313IWxccLk-178">
          <mxGeometry relative="1" as="geometry" />
        </mxCell>
        <mxCell id="djVUYxhhLj313IWxccLk-202" value="Sheald Active" style="whiteSpace=wrap;html=1;rounded=1;glass=0;strokeWidth=1;shadow=0;" vertex="1" parent="WIyWlLk6GJQsqaUBKTNV-1">
          <mxGeometry x="1140.5" y="540" width="120" height="40" as="geometry" />
        </mxCell>
        <mxCell id="djVUYxhhLj313IWxccLk-229" style="edgeStyle=orthogonalEdgeStyle;rounded=0;orthogonalLoop=1;jettySize=auto;html=1;exitX=1;exitY=0.5;exitDx=0;exitDy=0;entryX=0;entryY=0.5;entryDx=0;entryDy=0;" edge="1" parent="WIyWlLk6GJQsqaUBKTNV-1" source="djVUYxhhLj313IWxccLk-208" target="djVUYxhhLj313IWxccLk-217">
          <mxGeometry relative="1" as="geometry" />
        </mxCell>
        <mxCell id="djVUYxhhLj313IWxccLk-208" value="The Free Ally" style="whiteSpace=wrap;html=1;rounded=1;glass=0;strokeWidth=1;shadow=0;" vertex="1" parent="WIyWlLk6GJQsqaUBKTNV-1">
          <mxGeometry x="200" y="1020" width="120" height="40" as="geometry" />
        </mxCell>
        <mxCell id="djVUYxhhLj313IWxccLk-228" style="edgeStyle=orthogonalEdgeStyle;rounded=0;orthogonalLoop=1;jettySize=auto;html=1;exitX=1;exitY=0.5;exitDx=0;exitDy=0;entryX=0;entryY=0.5;entryDx=0;entryDy=0;" edge="1" parent="WIyWlLk6GJQsqaUBKTNV-1" source="djVUYxhhLj313IWxccLk-210" target="djVUYxhhLj313IWxccLk-217">
          <mxGeometry relative="1" as="geometry" />
        </mxCell>
        <mxCell id="djVUYxhhLj313IWxccLk-210" value="The healer &amp;amp; Support" style="whiteSpace=wrap;html=1;rounded=1;glass=0;strokeWidth=1;shadow=0;" vertex="1" parent="WIyWlLk6GJQsqaUBKTNV-1">
          <mxGeometry x="200" y="1080" width="120" height="40" as="geometry" />
        </mxCell>
        <mxCell id="djVUYxhhLj313IWxccLk-231" value="" style="edgeStyle=orthogonalEdgeStyle;rounded=0;orthogonalLoop=1;jettySize=auto;html=1;" edge="1" parent="WIyWlLk6GJQsqaUBKTNV-1" source="djVUYxhhLj313IWxccLk-217" target="djVUYxhhLj313IWxccLk-230">
          <mxGeometry relative="1" as="geometry" />
        </mxCell>
        <mxCell id="djVUYxhhLj313IWxccLk-217" value="Walk into Tower" style="whiteSpace=wrap;html=1;rounded=1;glass=0;strokeWidth=1;shadow=0;" vertex="1" parent="WIyWlLk6GJQsqaUBKTNV-1">
          <mxGeometry x="360" y="1020" width="120" height="40" as="geometry" />
        </mxCell>
        <mxCell id="djVUYxhhLj313IWxccLk-226" style="edgeStyle=orthogonalEdgeStyle;rounded=0;orthogonalLoop=1;jettySize=auto;html=1;exitX=0.5;exitY=1;exitDx=0;exitDy=0;entryX=0.5;entryY=0;entryDx=0;entryDy=0;" edge="1" parent="WIyWlLk6GJQsqaUBKTNV-1" source="djVUYxhhLj313IWxccLk-224" target="djVUYxhhLj313IWxccLk-92">
          <mxGeometry relative="1" as="geometry" />
        </mxCell>
        <mxCell id="djVUYxhhLj313IWxccLk-227" style="edgeStyle=orthogonalEdgeStyle;rounded=0;orthogonalLoop=1;jettySize=auto;html=1;exitX=0;exitY=0.5;exitDx=0;exitDy=0;entryX=0;entryY=0.5;entryDx=0;entryDy=0;" edge="1" parent="WIyWlLk6GJQsqaUBKTNV-1" source="djVUYxhhLj313IWxccLk-224" target="djVUYxhhLj313IWxccLk-210">
          <mxGeometry relative="1" as="geometry">
            <Array as="points">
              <mxPoint x="20" y="865" />
              <mxPoint x="20" y="1100" />
            </Array>
          </mxGeometry>
        </mxCell>
        <mxCell id="djVUYxhhLj313IWxccLk-224" value="Jail is empty" style="rhombus;whiteSpace=wrap;html=1;rounded=1;glass=0;strokeWidth=1;shadow=0;" vertex="1" parent="WIyWlLk6GJQsqaUBKTNV-1">
          <mxGeometry x="50" y="825" width="80" height="80" as="geometry" />
        </mxCell>
        <mxCell id="djVUYxhhLj313IWxccLk-233" style="edgeStyle=orthogonalEdgeStyle;rounded=0;orthogonalLoop=1;jettySize=auto;html=1;exitX=1;exitY=0.5;exitDx=0;exitDy=0;entryX=1;entryY=0.5;entryDx=0;entryDy=0;" edge="1" parent="WIyWlLk6GJQsqaUBKTNV-1" source="djVUYxhhLj313IWxccLk-230" target="djVUYxhhLj313IWxccLk-23">
          <mxGeometry relative="1" as="geometry">
            <Array as="points">
              <mxPoint x="530" y="920" />
              <mxPoint x="530" y="220" />
            </Array>
          </mxGeometry>
        </mxCell>
        <mxCell id="djVUYxhhLj313IWxccLk-234" style="edgeStyle=orthogonalEdgeStyle;rounded=0;orthogonalLoop=1;jettySize=auto;html=1;exitX=0;exitY=0.5;exitDx=0;exitDy=0;entryX=1;entryY=0.5;entryDx=0;entryDy=0;" edge="1" parent="WIyWlLk6GJQsqaUBKTNV-1" source="djVUYxhhLj313IWxccLk-230" target="djVUYxhhLj313IWxccLk-61">
          <mxGeometry relative="1" as="geometry">
            <Array as="points">
              <mxPoint x="360" y="920" />
              <mxPoint x="360" y="605" />
            </Array>
          </mxGeometry>
        </mxCell>
        <mxCell id="djVUYxhhLj313IWxccLk-230" value="Hp = 0" style="rhombus;whiteSpace=wrap;html=1;rounded=1;glass=0;strokeWidth=1;shadow=0;" vertex="1" parent="WIyWlLk6GJQsqaUBKTNV-1">
          <mxGeometry x="380" y="880" width="80" height="80" as="geometry" />
        </mxCell>
        <mxCell id="djVUYxhhLj313IWxccLk-232" value="Yes" style="text;html=1;strokeColor=none;fillColor=none;align=center;verticalAlign=middle;whiteSpace=wrap;rounded=0;" vertex="1" parent="WIyWlLk6GJQsqaUBKTNV-1">
          <mxGeometry y="840" width="60" height="20" as="geometry" />
        </mxCell>
        <mxCell id="djVUYxhhLj313IWxccLk-235" value="Yes" style="text;html=1;strokeColor=none;fillColor=none;align=center;verticalAlign=middle;whiteSpace=wrap;rounded=0;" vertex="1" parent="WIyWlLk6GJQsqaUBKTNV-1">
          <mxGeometry x="353" y="880" width="60" height="20" as="geometry" />
        </mxCell>
      </root>
    </mxGraphModel>
  </diagram>
</mxfile>
